<svg xmlns="http://www.w3.org/2000/svg" viewBox="0 0 160 180"><defs><radialGradient id="g"><stop stop-color="#bfb3df" stop-opacity=".15"/><stop offset="1" stop-color="#bfb3df" stop-opacity="0"/></radialGradient></defs><rect width="160" height="180" fill="url(#g)"/><g fill="none" stroke="#bfb3df" stroke-width="1.3"><path d="M24 151V74a56 56 0 0 1 112 0v77M30 151V74a50 50 0 0 1 100 0v77" opacity=".4"/><path d="m80 10 3 5-3 5-3-5M18 152h124M48 159h64" opacity=".7"/></g><g color="#bfb3df" fill="none" stroke="currentColor" stroke-width="2" stroke-linejoin="round" stroke-linecap="round"><circle cx="80" cy="85" r="36" fill="#2c2b42"/><path d="M49 85q31-34 62 0-31 34-62 0Z"/><circle cx="80" cy="85" r="12"/><circle cx="80" cy="85" r="4" fill="currentColor"/><path d="M59 118 49 139h62l-10-21M80 34v-9m-42 32-8-5m92 5 8-5M65 137h30"/></g><g fill="#bfb3df" opacity=".6"><circle cx="32" cy="35" r="1"/><circle cx="129" cy="43" r="1.3"/><circle cx="123" cy="121" r="1"/><circle cx="38" cy="113" r="1"/></g></svg>