<svg xmlns="http://www.w3.org/2000/svg" viewBox="0 0 160 180"><defs><radialGradient id="g"><stop stop-color="#dab5a5" stop-opacity=".15"/><stop offset="1" stop-color="#dab5a5" stop-opacity="0"/></radialGradient></defs><rect width="160" height="180" fill="url(#g)"/><g fill="none" stroke="#dab5a5" stroke-width="1.3"><path d="M24 151V74a56 56 0 0 1 112 0v77M30 151V74a50 50 0 0 1 100 0v77" opacity=".4"/><path d="m80 10 3 5-3 5-3-5M18 152h124M48 159h64" opacity=".7"/></g><g color="#dab5a5" fill="none" stroke="currentColor" stroke-width="2" stroke-linejoin="round" stroke-linecap="round"><path d="M47 101 44 44 68 62 80 55 92 62 116 44 113 101 94 126 80 139 66 126Z" fill="#263743"/><path d="m44 44 15 39 9-21m48-18-15 39-9-21M59 88l14 9-10 3m38-12-14 9 10 3M68 117l12 9 12-9M80 126v13"/><path d="m74 112 6-4 6 4-6 5Z" fill="currentColor"/><path d="m66 101 8 11m20-11-8 11"/></g><g fill="#dab5a5" opacity=".6"><circle cx="32" cy="35" r="1"/><circle cx="129" cy="43" r="1.3"/><circle cx="123" cy="121" r="1"/><circle cx="38" cy="113" r="1"/></g></svg>