<svg xmlns="http://www.w3.org/2000/svg" viewBox="0 0 160 180"><defs><radialGradient id="g"><stop stop-color="#e3a98f" stop-opacity=".15"/><stop offset="1" stop-color="#e3a98f" stop-opacity="0"/></radialGradient></defs><rect width="160" height="180" fill="url(#g)"/><g fill="none" stroke="#e3a98f" stroke-width="1.3"><path d="M24 151V74a56 56 0 0 1 112 0v77M30 151V74a50 50 0 0 1 100 0v77" opacity=".4"/><path d="m80 10 3 5-3 5-3-5M18 152h124M48 159h64" opacity=".7"/></g><g color="#e3a98f" fill="none" stroke="currentColor" stroke-width="2" stroke-linejoin="round" stroke-linecap="round"><path d="M54 106 52 66 69 78 80 73 91 78 108 66 106 106 92 124 80 133 68 124Z" fill="#3a2f33"/><path d="m52 66 10 26 6-12m40-14-10 26-6-12M63 96l10 6-7 2m31-8-10 6 7 2M71 117l9 6 9-6"/><path d="m76 111 4-3 4 3-4 4Z" fill="currentColor"/><path d="M110 40a14 14 0 1 0 8 25 11 11 0 0 1-8-25"/><path d="M44 142h14m44 0h14"/></g><g fill="#e3a98f" opacity=".6"><circle cx="32" cy="35" r="1"/><circle cx="129" cy="43" r="1.3"/><circle cx="123" cy="121" r="1"/><circle cx="38" cy="113" r="1"/></g></svg>