<svg xmlns="http://www.w3.org/2000/svg" viewBox="0 0 600 460"><defs><radialGradient id="sky"><stop stop-color="#344653"/><stop offset="1" stop-color="#101a25"/></radialGradient><linearGradient id="fog" x2="0" y2="1"><stop stop-color="#50616a" stop-opacity=".2"/><stop offset="1" stop-color="#101a25"/></linearGradient></defs><rect width="600" height="460" fill="url(#sky)"/><circle cx="374" cy="111" r="48" fill="#e9d6a5"/><circle cx="389" cy="96" r="45" fill="#293a46"/><g fill="#c7bc98" opacity=".5"><circle cx="210" cy="77" r="1.2"/><circle cx="450" cy="52" r="1"/><circle cx="290" cy="48" r="1"/><circle cx="486" cy="142" r="1.5"/><circle cx="154" cy="137" r="1"/><circle cx="324" cy="177" r="1"/><circle cx="426" cy="189" r="1"/></g><path d="M60 312 161 180 238 287 285 221 361 295 453 174 562 296v164H60" fill="#1c303a"/><g fill="#14262f"><path d="m92 154-40 125h24l-43 70h112l-42-70h21Zm440-27-46 149h28l-48 80h132l-51-80h28Z"/><path d="m156 218-35 94h18l-29 52h92l-30-52h20Zm302 3-34 105h20l-35 58h97l-32-58h20Z"/></g><path d="M15 389q166-106 305-22 140-44 282 1v92H15Z" fill="#17232c"/><g stroke="#52616a" stroke-width="1.4" stroke-linejoin="round"><path d="M214 303h125v94H214Z" fill="#25313a"/><path d="m196 307 79-81 84 81Z" fill="#33424a"/><path d="m207 299 68-68 72 68M224 283h101m-92-12h79m-69-12h55" fill="none"/><path d="M250 397v-47q17-22 34 0v47" fill="#14212a"/><path d="M308 319h17v27h-17zm-79 0h15v27h-15z" fill="#d8b370" stroke="#a58e64"/><path d="M363 331h86v68h-86Z" fill="#28353c"/><path d="m350 333 57-57 57 57Z" fill="#3d4549"/><path d="M383 354h15v22h-15zm35 0h15v22h-15z" fill="#d8b370" stroke="#a58e64"/><path d="M372 298v-29h12v17" fill="#34414a"/><path d="M119 359h72v45h-72Z" fill="#253039"/><path d="m106 361 49-47 49 47Z" fill="#35434b"/><path d="M140 377h13v19h-13z" fill="#e0bb79" stroke="#a58e64"/></g><path d="M266 383q-30 42 42 77h138q-100-35-161-77" fill="#46504e" opacity=".5"/><g stroke="#576057" stroke-width="3"><path d="M197 367v55m-23-49v51m-23-44v41m46-40-53 13m291-27v38m24-38v42m-47-40v30m-6-15h68"/></g><path d="M0 390q155-26 294 9t306-2v63H0Z" fill="url(#fog)"/><path d="M0 445q158-41 304 0t296-4v19H0Z" fill="#101a25"/></svg>